<svg width="71" height="106" viewBox="0 0 71 106" fill="none" xmlns="http://www.w3.org/2000/svg">
<path d="M56.3528 65.5355H55.5992C56.0758 63.1584 56.3528 60.671 56.3528 58.0883C56.3528 42.458 47.017 29.7888 35.5006 29.7888C23.9842 29.7888 14.6484 42.458 14.6484 58.0883C14.6484 60.671 14.9254 63.1584 15.402 65.5355H14.6484C8.69057 74.4722 10.1741 89.5335 15.0118 92.3455C35.5006 104.261 23.585 86.3877 35.5006 86.3877C47.4162 86.3877 35.5006 104.261 55.9894 92.3455C60.8271 89.5335 62.3106 74.4722 56.3528 65.5355Z" fill="#C1694F"/>
<path d="M52.3823 60.9422C51.8551 56.3427 53.3266 50.3313 53.1419 45.303C49.0102 48.5321 41.3009 50.6412 35.5009 50.6412C29.701 50.6412 22.0662 48.5321 17.9344 45.303C17.7497 50.3313 19.1468 56.3427 18.6196 60.9422C17.2552 72.8577 25.6289 82.3425 35.5009 82.3425C45.373 82.3425 53.7467 72.8577 52.3823 60.9422Z" fill="#C1694F"/>
<path d="M18.7385 41.7043C18.7385 41.7043 3.84403 44.6832 0.865139 62.5566C-2.11375 80.4299 11.05 82.1607 15.7596 77.451C21.7174 71.4933 15.7596 65.5355 15.7596 65.5355C15.7596 65.5355 18.7385 50.641 18.7385 41.7043ZM52.2629 41.7043C52.2629 41.7043 67.1574 44.6832 70.1363 62.5566C73.1152 80.4299 59.9514 82.1607 55.2418 77.451C49.284 71.4933 55.2418 65.5355 55.2418 65.5355C55.2418 65.5355 52.2629 50.641 52.2629 41.7043Z" fill="#C1694F"/>
<path d="M14.6485 23.8311C21.2293 23.8311 26.564 18.4963 26.564 11.9156C26.564 5.33478 21.2293 0 14.6485 0C8.06769 0 2.73291 5.33478 2.73291 11.9156C2.73291 18.4963 8.06769 23.8311 14.6485 23.8311Z" fill="#C1694F"/>
<path d="M14.6482 17.8733C17.9386 17.8733 20.606 15.2059 20.606 11.9155C20.606 8.62515 17.9386 5.95776 14.6482 5.95776C11.3578 5.95776 8.69043 8.62515 8.69043 11.9155C8.69043 15.2059 11.3578 17.8733 14.6482 17.8733Z" fill="#662113"/>
<path d="M56.3531 23.8311C62.9338 23.8311 68.2686 18.4963 68.2686 11.9156C68.2686 5.33478 62.9338 0 56.3531 0C49.7723 0 44.4375 5.33478 44.4375 11.9156C44.4375 18.4963 49.7723 23.8311 56.3531 23.8311Z" fill="#C1694F"/>
<path d="M56.3528 17.8733C59.6432 17.8733 62.3106 15.2059 62.3106 11.9155C62.3106 8.62515 59.6432 5.95776 56.3528 5.95776C53.0624 5.95776 50.395 8.62515 50.395 11.9155C50.395 15.2059 53.0624 17.8733 56.3528 17.8733Z" fill="#662113"/>
<path d="M35.501 47.6621C48.6626 47.6621 59.3322 37.6594 59.3322 25.3204C59.3322 12.9815 48.6626 2.97876 35.501 2.97876C22.3395 2.97876 11.6699 12.9815 11.6699 25.3204C11.6699 37.6594 22.3395 47.6621 35.501 47.6621Z" fill="#C1694F"/>
<path d="M26.5639 26.8101C28.209 26.8101 29.5427 25.4764 29.5427 23.8312C29.5427 22.186 28.209 20.8523 26.5639 20.8523C24.9187 20.8523 23.585 22.186 23.585 23.8312C23.585 25.4764 24.9187 26.8101 26.5639 26.8101Z" fill="#292F33"/>
<path d="M44.4374 26.8101C46.0826 26.8101 47.4163 25.4764 47.4163 23.8312C47.4163 22.186 46.0826 20.8523 44.4374 20.8523C42.7922 20.8523 41.4585 22.186 41.4585 23.8312C41.4585 25.4764 42.7922 26.8101 44.4374 26.8101Z" fill="#292F33"/>
<path d="M35.6733 28.4871C15.393 28.4871 21.9347 45.0557 35.2354 45.0557C48.5332 45.0557 55.9536 28.4871 35.6733 28.4871Z" fill="#D99E82"/>
<path d="M31.3735 33.9317L33.092 36.0231C33.3361 36.3201 33.6871 36.5668 34.1097 36.7382C34.5324 36.9097 35.0119 37 35.5 37C35.9881 37 36.4676 36.9097 36.8903 36.7382C37.3129 36.5668 37.6639 36.3201 37.908 36.0231L39.6265 33.9317C39.871 33.6346 39.9998 33.2976 40 32.9545C40.0002 32.6114 39.8718 32.2743 39.6277 31.9771C39.3836 31.6799 39.0325 31.4332 38.6095 31.2617C38.1866 31.0901 37.7069 30.9999 37.2186 31H33.7814C33.2931 30.9999 32.8134 31.0901 32.3905 31.2617C31.9675 31.4332 31.6164 31.6799 31.3723 31.9771C31.1282 32.2743 30.9998 32.6114 31 32.9545C31.0002 33.2976 31.129 33.6346 31.3735 33.9317Z" fill="#292F33"/>
<path d="M15.4379 80.4361C15.115 80.4378 14.8003 80.3344 14.5414 80.1414C14.2825 79.9484 14.0935 79.6763 14.003 79.3664C13.9124 79.0564 13.9253 78.7254 14.0396 78.4234C14.1539 78.1214 14.3635 77.8648 14.6366 77.6925C15.5838 77.0055 16.3493 76.0979 16.8668 75.0483C17.3843 73.9988 17.6382 72.839 17.6065 71.6692C17.538 68.7171 14.8272 66.7808 14.8004 66.766C14.6216 66.6401 14.4722 66.4768 14.3627 66.2876C14.2531 66.0983 14.186 65.8875 14.1659 65.6697C13.5552 58.6395 16.1022 51.6421 16.2124 51.3442C16.3549 50.9816 16.6338 50.6892 16.9893 50.5298C17.3448 50.3704 17.7486 50.3567 18.1142 50.4915C18.4797 50.6263 18.7778 50.899 18.9447 51.2511C19.1115 51.6032 19.1337 52.0066 19.0066 52.3749C18.9828 52.4375 16.7397 58.6276 17.0882 64.782C18.2053 65.7412 20.502 68.1303 20.5854 71.6007C20.7165 77.2904 16.4209 80.0935 16.2392 80.2097C15.9976 80.3565 15.7206 80.4347 15.4379 80.4361ZM55.5665 80.4361C55.2827 80.4366 55.0047 80.3559 54.7652 80.2037C54.5805 80.0876 50.285 77.2874 50.416 71.5947C50.4965 68.1243 52.7962 65.7353 53.9132 64.7761C54.2648 58.6038 52.0187 52.4345 51.9948 52.3719C51.927 52.1885 51.8959 51.9934 51.9034 51.798C51.9109 51.6025 51.9568 51.4104 52.0386 51.2327C52.1203 51.0549 52.2363 50.8951 52.3798 50.7621C52.5233 50.6292 52.6916 50.5259 52.8751 50.458C53.0586 50.3901 53.2536 50.3591 53.4491 50.3666C53.6446 50.3741 53.8367 50.42 54.0144 50.5018C54.1921 50.5835 54.352 50.6994 54.4849 50.843C54.6178 50.9865 54.7212 51.1548 54.789 51.3383C54.8993 51.6332 57.4492 58.6306 56.8385 65.6638C56.8191 65.8828 56.7517 66.0949 56.641 66.2849C56.5303 66.4749 56.3791 66.6381 56.1981 66.763C56.1742 66.7779 53.4634 68.7112 53.3979 71.6662C53.3659 72.836 53.6197 73.996 54.1372 75.0455C54.6548 76.0951 55.4204 77.0027 56.3678 77.6895C56.6402 77.8626 56.849 78.1194 56.9628 78.4214C57.0765 78.7233 57.0892 79.054 56.9988 79.3638C56.9085 79.6736 56.7199 79.9456 56.4616 80.139C56.2033 80.3324 55.8892 80.4366 55.5665 80.4361Z" fill="#934035"/>
<path d="M25.5429 101.386C30.7778 96.1507 30.3061 87.1916 24.4894 81.375C18.6726 75.5585 9.71351 75.0871 4.47862 80.3222C-0.756272 85.5573 -0.284582 94.5164 5.53217 100.333C11.3489 106.149 20.308 106.621 25.5429 101.386Z" fill="#C1694F"/>
<path d="M21.6458 98.9796C18.5061 102.119 12.9891 101.696 9.32213 98.0323C5.6581 94.3682 5.23212 88.8513 8.37485 85.7086C11.5146 82.5688 17.0315 82.9918 20.6985 86.6559C24.3626 90.3229 24.7856 95.8398 21.6458 98.9796Z" fill="#D99E82"/>
<path d="M20.2756 97.6123C17.9491 99.9388 13.7042 99.4681 10.7968 96.5577C7.88941 93.6503 7.41576 89.4054 9.74228 87.0789C12.0688 84.7524 16.3137 85.2231 19.2211 88.1334C22.1285 91.0438 22.6021 95.2858 20.2756 97.6123Z" fill="#D99E82"/>
<path d="M65.4682 100.335C71.2847 94.5181 71.7561 85.559 66.521 80.3241C61.2859 75.0892 52.3268 75.5609 46.5103 81.3776C40.6938 87.1944 40.2224 96.1535 45.4574 101.388C50.6925 106.623 59.6516 106.152 65.4682 100.335Z" fill="#C1694F"/>
<path d="M49.3556 98.9796C52.4953 102.119 58.0122 101.696 61.6792 98.0323C65.3433 94.3682 65.7693 88.8513 62.6265 85.7086C59.4868 82.5688 53.9699 82.9918 50.3029 86.6559C46.6388 90.3229 46.2158 95.8398 49.3556 98.9796Z" fill="#D99E82"/>
<path d="M60.2024 96.5583C63.1106 93.6499 63.5821 89.4061 61.2554 87.0795C58.9287 84.7529 54.6849 85.2245 51.7766 88.1328C48.8684 91.0412 48.3969 95.285 50.7236 97.6116C53.0503 99.9383 57.2941 99.4667 60.2024 96.5583Z" fill="#D99E82"/>
<path d="M35.7597 42.1156C31.9467 42.1156 29.0602 39.2946 29.0155 39.2529C28.8796 39.1126 28.8043 38.9246 28.8057 38.7294C28.8071 38.5341 28.8852 38.3472 29.023 38.2089C29.1609 38.0706 29.3476 37.992 29.5429 37.9901C29.7382 37.9881 29.9264 38.0629 30.067 38.1984C30.2904 38.4188 35.575 43.5514 40.931 38.1984C41.0003 38.1291 41.0825 38.0742 41.173 38.0367C41.2634 37.9993 41.3604 37.98 41.4583 37.98C41.5562 37.98 41.6532 37.9993 41.7437 38.0367C41.8341 38.0742 41.9163 38.1291 41.9856 38.1984C42.0548 38.2676 42.1097 38.3498 42.1472 38.4403C42.1847 38.5308 42.204 38.6277 42.204 38.7256C42.204 38.8236 42.1847 38.9205 42.1472 39.011C42.1097 39.1015 42.0548 39.1837 41.9856 39.2529C39.8378 41.4007 37.6811 42.1156 35.7597 42.1156Z" fill="#292F33"/>
<path d="M29.394 88.5536C29.1153 88.5536 28.8423 88.4755 28.6058 88.328C28.3694 88.1806 28.179 87.9698 28.0564 87.7196C21.2824 73.9124 7.81488 78.3361 7.24591 78.5267C6.87222 78.6555 6.46267 78.6305 6.10737 78.4574C5.75207 78.2842 5.48012 77.9769 5.35134 77.6032C5.22256 77.2296 5.24751 76.82 5.42069 76.4647C5.59387 76.1094 5.9011 75.8375 6.27479 75.7087C6.43863 75.6491 22.7868 70.2126 30.7315 86.4088C30.8428 86.6359 30.8944 86.8876 30.8815 87.1401C30.8686 87.3927 30.7916 87.6378 30.6578 87.8523C30.524 88.0669 30.3378 88.2439 30.1167 88.3666C29.8955 88.4893 29.6468 88.5536 29.394 88.5536ZM41.6104 88.5536C41.3643 88.5542 41.1219 88.4936 40.905 88.3774C40.6881 88.2611 40.5034 88.0928 40.3676 87.8876C40.2317 87.6824 40.149 87.4466 40.1267 87.2015C40.1045 86.9564 40.1434 86.7096 40.2401 86.4833C46.9575 70.6922 64.4913 75.6372 64.661 75.6908C64.8484 75.7456 65.0232 75.8367 65.1754 75.959C65.3275 76.0813 65.4541 76.2324 65.5479 76.4036C65.6417 76.5748 65.7008 76.7628 65.7219 76.9569C65.743 77.151 65.7257 77.3473 65.6709 77.5347C65.5575 77.9116 65.3009 78.229 64.9562 78.4189C64.6115 78.6088 64.2061 78.6561 63.827 78.5505C63.2103 78.3688 48.6465 74.3205 42.9807 87.6481C42.8656 87.9163 42.6745 88.1449 42.431 88.3058C42.1875 88.4667 41.9023 88.5529 41.6104 88.5536Z" fill="#934035"/>
</svg>
