<svg width="71" height="106" viewBox="0 0 71 106" fill="none" xmlns="http://www.w3.org/2000/svg">
<path d="M55.9217 65.5355H55.168C55.6446 63.1584 55.9217 60.671 55.9217 58.0883C55.9217 42.458 46.5858 29.7888 35.0694 29.7888C23.553 29.7888 14.2172 42.458 14.2172 58.0883C14.2172 60.671 14.4942 63.1584 14.9709 65.5355H14.2172C8.25942 74.4722 9.74291 89.5335 14.5806 92.3455C35.0694 104.261 23.1539 86.3877 35.0694 86.3877C46.985 86.3877 35.0694 104.261 55.5582 92.3455C60.396 89.5335 61.8795 74.4722 55.9217 65.5355Z" fill="#C1694F"/>
<path d="M51.9512 60.9422C51.4239 56.3427 52.8955 50.3313 52.7108 45.303C48.5791 48.5321 40.8697 50.6412 35.0698 50.6412C29.2699 50.6412 21.635 48.5321 17.5033 45.303C17.3186 50.3313 18.7157 56.3427 18.1884 60.9422C16.8241 72.8577 25.1978 82.3425 35.0698 82.3425C44.9418 82.3425 53.3155 72.8577 51.9512 60.9422Z" fill="#C1694F"/>
<path d="M18.3073 41.7043C18.3073 41.7043 3.41288 44.6832 0.433986 62.5566C-2.5449 80.4299 10.6188 82.1607 15.3284 77.451C21.2862 71.4933 15.3284 65.5355 15.3284 65.5355C15.3284 65.5355 18.3073 50.641 18.3073 41.7043ZM51.8318 41.7043C51.8318 41.7043 66.7262 44.6832 69.7051 62.5566C72.684 80.4299 59.5203 82.1607 54.8107 77.451C48.8529 71.4933 54.8107 65.5355 54.8107 65.5355C54.8107 65.5355 51.8318 50.641 51.8318 41.7043Z" fill="#C1694F"/>
<path d="M14.2173 23.8311C20.7981 23.8311 26.1329 18.4963 26.1329 11.9156C26.1329 5.33478 20.7981 0 14.2173 0C7.63654 0 2.30176 5.33478 2.30176 11.9156C2.30176 18.4963 7.63654 23.8311 14.2173 23.8311Z" fill="#C1694F"/>
<path d="M55.9219 23.8311C62.5027 23.8311 67.8375 18.4963 67.8375 11.9156C67.8375 5.33478 62.5027 0 55.9219 0C49.3411 0 44.0063 5.33478 44.0063 11.9156C44.0063 18.4963 49.3411 23.8311 55.9219 23.8311Z" fill="#C1694F"/>
<path d="M35.0699 47.6621C48.2315 47.6621 58.901 37.6594 58.901 25.3204C58.901 12.9815 48.2315 2.97876 35.0699 2.97876C21.9083 2.97876 11.2388 12.9815 11.2388 25.3204C11.2388 37.6594 21.9083 47.6621 35.0699 47.6621Z" fill="#C1694F"/>
<path d="M26.1327 26.8101C27.7779 26.8101 29.1116 25.4764 29.1116 23.8312C29.1116 22.186 27.7779 20.8523 26.1327 20.8523C24.4875 20.8523 23.1538 22.186 23.1538 23.8312C23.1538 25.4764 24.4875 26.8101 26.1327 26.8101Z" fill="#151515"/>
<path d="M44.0062 26.8101C45.6514 26.8101 46.9851 25.4764 46.9851 23.8312C46.9851 22.186 45.6514 20.8523 44.0062 20.8523C42.361 20.8523 41.0273 22.186 41.0273 23.8312C41.0273 25.4764 42.361 26.8101 44.0062 26.8101Z" fill="#151515"/>
<path d="M25.1118 101.386C30.3467 96.1507 29.875 87.1916 24.0582 81.375C18.2415 75.5585 9.28236 75.0871 4.04747 80.3222C-1.18742 85.5573 -0.715734 94.5164 5.10101 100.333C10.9178 106.149 19.8769 106.621 25.1118 101.386Z" fill="#C1694F"/>
<path d="M21.2147 98.9796C18.0749 102.119 12.558 101.696 8.89098 98.0323C5.22694 94.3682 4.80096 88.8513 7.94369 85.7086C11.0834 82.5688 16.6003 82.9918 20.2674 86.6559C23.9314 90.3229 24.3544 95.8398 21.2147 98.9796Z" fill="#D99E82"/>
<path d="M19.8445 97.6123C17.518 99.9388 13.2731 99.4681 10.3657 96.5577C7.45826 93.6503 6.98461 89.4054 9.31113 87.0789C11.6376 84.7524 15.8826 85.2231 18.79 88.1334C21.6974 91.0438 22.171 95.2858 19.8445 97.6123Z" fill="#D99E82"/>
<path d="M65.037 100.335C70.8536 94.5181 71.3249 85.559 66.0899 80.3241C60.8548 75.0892 51.8957 75.5609 46.0791 81.3776C40.2626 87.1944 39.7912 96.1535 45.0263 101.388C50.2614 106.623 59.2205 106.152 65.037 100.335Z" fill="#C1694F"/>
<path d="M48.9244 98.9796C52.0642 102.119 57.5811 101.696 61.2481 98.0323C64.9121 94.3682 65.3381 88.8513 62.1954 85.7086C59.0556 82.5688 53.5387 82.9918 49.8717 86.6559C46.2077 90.3229 45.7847 95.8398 48.9244 98.9796Z" fill="#D99E82"/>
<path d="M59.7712 96.5583C62.6795 93.6499 63.1509 89.4061 60.8242 87.0795C58.4975 84.7529 54.2538 85.2245 51.3455 88.1328C48.4372 91.0412 47.9658 95.285 50.2925 97.6116C52.6192 99.9383 56.8629 99.4667 59.7712 96.5583Z" fill="#D99E82"/>
</svg>
