<svg width="71" height="106" viewBox="0 0 71 106" fill="none" xmlns="http://www.w3.org/2000/svg">
<path d="M55.9217 65.5355H55.168C55.6446 63.1584 55.9217 60.671 55.9217 58.0883C55.9217 42.458 46.5858 29.7888 35.0694 29.7888C23.553 29.7888 14.2172 42.458 14.2172 58.0883C14.2172 60.671 14.4942 63.1584 14.9709 65.5355H14.2172C8.25942 74.4722 9.74291 89.5335 14.5806 92.3455C35.0694 104.261 23.1539 86.3877 35.0694 86.3877C46.985 86.3877 35.0694 104.261 55.5582 92.3455C60.396 89.5335 61.8795 74.4722 55.9217 65.5355Z" fill="#C1694F"/>
<path d="M51.9512 60.9422C51.4239 56.3427 52.8955 50.3313 52.7108 45.303C48.5791 48.5321 40.8697 50.6412 35.0698 50.6412C29.2699 50.6412 21.635 48.5321 17.5033 45.303C17.3186 50.3313 18.7157 56.3427 18.1884 60.9422C16.8241 72.8577 25.1978 82.3425 35.0698 82.3425C44.9418 82.3425 53.3155 72.8577 51.9512 60.9422Z" fill="#C1694F"/>
<path d="M18.3073 41.7043C18.3073 41.7043 3.41288 44.6832 0.433986 62.5566C-2.5449 80.4299 10.6188 82.1607 15.3284 77.451C21.2862 71.4933 15.3284 65.5355 15.3284 65.5355C15.3284 65.5355 18.3073 50.641 18.3073 41.7043ZM51.8318 41.7043C51.8318 41.7043 66.7262 44.6832 69.7051 62.5566C72.684 80.4299 59.5203 82.1607 54.8107 77.451C48.8529 71.4933 54.8107 65.5355 54.8107 65.5355C54.8107 65.5355 51.8318 50.641 51.8318 41.7043Z" fill="#C1694F"/>
<path d="M14.2173 23.8311C20.7981 23.8311 26.1329 18.4963 26.1329 11.9156C26.1329 5.33478 20.7981 0 14.2173 0C7.63654 0 2.30176 5.33478 2.30176 11.9156C2.30176 18.4963 7.63654 23.8311 14.2173 23.8311Z" fill="#C1694F"/>
<path d="M55.9219 23.8311C62.5027 23.8311 67.8375 18.4963 67.8375 11.9156C67.8375 5.33478 62.5027 0 55.9219 0C49.3411 0 44.0063 5.33478 44.0063 11.9156C44.0063 18.4963 49.3411 23.8311 55.9219 23.8311Z" fill="#C1694F"/>
<path d="M35.0699 47.6621C48.2315 47.6621 58.901 37.6594 58.901 25.3204C58.901 12.9815 48.2315 2.97876 35.0699 2.97876C21.9083 2.97876 11.2388 12.9815 11.2388 25.3204C11.2388 37.6594 21.9083 47.6621 35.0699 47.6621Z" fill="#C1694F"/>
<path d="M25.1118 101.386C30.3467 96.1507 29.875 87.1916 24.0582 81.375C18.2415 75.5585 9.28236 75.0871 4.04747 80.3222C-1.18742 85.5573 -0.715734 94.5164 5.10101 100.333C10.9178 106.149 19.8769 106.621 25.1118 101.386Z" fill="#C1694F"/>
<path d="M65.037 100.335C70.8536 94.5181 71.3249 85.559 66.0899 80.3241C60.8548 75.0892 51.8957 75.5609 46.0791 81.3776C40.2626 87.1944 39.7912 96.1535 45.0263 101.388C50.2614 106.623 59.2205 106.152 65.037 100.335Z" fill="#C1694F"/>
</svg>
