<svg width="245" height="245" viewBox="0 0 245 245" fill="none" xmlns="http://www.w3.org/2000/svg">
<path d="M43.2887 89.4402C43.3299 85.8126 40.7717 76.2859 44.6147 68.4904C48.4548 60.6949 24.4089 58.6588 12.2278 68.666C0.499398 78.3018 13.0719 86.595 20.8114 84.7714C36.4948 81.0739 43.2093 96.785 43.2887 89.4402Z" fill="#E96840"/>
<path d="M35.082 45.9419C35.1198 49.5662 32.565 59.093 36.4046 66.8923C40.2447 74.6811 14.0106 78.9054 4.02155 66.7128C-5.9689 54.5203 4.86374 48.7872 12.6066 50.6108C28.2809 54.3045 34.9968 38.5943 35.082 45.9419Z" fill="#FF8F63"/>
<path d="M36.5818 126.429C45.2827 116.186 52.4169 111.577 46.545 102.296C35.3468 91.095 30.1276 78.9718 30.1276 61.8816C30.1276 44.7943 37.0546 29.3258 48.2519 18.1281C59.4515 6.93034 74.9172 0 92.0073 0C109.098 0 124.563 6.93034 135.764 18.1281C146.962 29.3263 153.886 44.7948 153.886 61.8816C153.886 87.142 133.682 107.346 133.682 119.973C132.418 125.027 141.259 131.343 152.622 131.343C163.992 131.343 201.877 140.18 229.658 103.559C236.969 93.4522 245.81 99.1389 244.815 113.659C243.86 127.577 235.971 245 152.622 245C128.632 245 131.669 245 85.6905 245C66.5144 245 49.151 237.224 36.5818 224.657C24.0098 212.086 16.2354 194.724 16.2354 175.538C16.2354 156.362 24.0093 138.996 36.5818 126.429Z" fill="#FFDF39"/>
<path d="M103.049 160.915H195.506C205.607 160.915 208.133 178.591 191.716 188.699C191.716 201.322 185.399 220.266 166.459 220.266C147.512 220.266 124.784 220.266 108.368 220.266C91.9468 220.266 80.583 201.322 80.583 189.959C80.5835 178.591 91.6817 160.915 103.049 160.915Z" fill="#DCAA2B"/>
<path d="M98.7325 155.334H191.19C201.291 155.334 203.817 173.014 187.4 183.118C187.4 195.749 181.087 214.692 162.146 214.692C143.202 214.692 120.469 214.692 104.052 214.692C87.6343 214.692 76.2705 195.748 76.2705 184.381C76.2705 173.014 87.3687 155.334 98.7325 155.334Z" fill="#F9C43E"/>
<path d="M76.27 52.408C76.27 60.4327 69.7641 66.9353 61.748 66.9353C53.7266 66.9353 47.2227 60.4327 47.2227 52.408C47.2227 44.3938 53.7266 37.8879 61.748 37.8879C69.7641 37.8875 76.27 44.3934 76.27 52.408Z" fill="white"/>
<path d="M68.693 52.4079C68.693 56.248 65.5813 59.3584 61.7479 59.3584C57.9111 59.3584 54.8008 56.248 54.8008 52.4079C54.8008 48.5784 57.9111 45.468 61.7479 45.468C65.5808 45.4675 68.693 48.5779 68.693 52.4079Z" fill="#4D4D4D"/>
</svg>
