<svg width="91" height="81" viewBox="0 0 91 81" fill="none" xmlns="http://www.w3.org/2000/svg">
<path d="M1.30176 16.3029C1.30176 16.3029 2.38166 15.9864 5.51337 17.4634C5.51337 17.4634 10.4809 19.5735 11.3448 16.5139C11.3448 16.5139 13.9366 -0.472201 33.4828 1.00485C49.1413 2.16539 52.705 13.7708 52.705 13.7708C52.705 13.7708 57.3486 24.0047 49.3573 31.601C47.1975 33.6055 45.5777 40.9908 57.4566 41.5183H59.1844C66.4198 41.2018 73.9791 39.0917 76.8948 29.4909C77.4347 27.8028 79.7025 27.4863 80.6744 28.9634C85.9659 37.1927 96.9809 59.243 83.6982 74.541C83.5902 74.6465 83.4822 74.752 83.3742 74.752C78.9466 81.8208 64.4759 80.8712 54.9728 80.8712H30.2431C19.5521 80.8712 10.8049 72.3254 10.8049 61.8805V60.509C10.8049 56.4999 12.1008 52.8072 14.2606 49.7476C14.2606 49.7476 14.2606 49.7476 14.3686 49.6421C14.6925 49.2201 15.0165 48.6926 15.4485 48.2706C17.1763 45.9495 20.308 41.2018 19.5521 37.8257C18.3642 32.234 12.9647 32.445 12.9647 32.445C12.9647 32.445 10.8049 32.445 9.18504 34.9771C8.21312 36.6651 5.51337 33.5 6.16131 30.7569C6.16131 30.7569 6.37729 26.9588 10.9129 25.5872C10.9129 25.5872 1.9497 26.7478 0.113871 19.046C0.113871 19.257 -0.534071 16.7249 1.30176 16.3029ZM28.1913 24.9542C30.6751 24.9542 32.7269 22.9496 32.7269 20.5231C32.7269 18.0965 30.6751 16.0919 28.1913 16.0919C25.7075 16.0919 23.6557 18.0965 23.6557 20.5231C23.6557 22.9496 25.5995 24.9542 28.1913 24.9542Z" fill="#FFE208"/>
</svg>
