<svg width="90" height="80" viewBox="0 0 90 80" fill="none" xmlns="http://www.w3.org/2000/svg">
<path d="M1.29883 15.3891C1.29883 15.3891 2.37873 15.0726 5.51044 16.5496C5.51044 16.5496 10.478 18.6597 11.3419 15.6001C11.3419 15.6001 13.9337 -1.38602 33.4799 0.0910337C49.1384 1.25158 52.7021 12.857 52.7021 12.857C52.7021 12.857 57.3457 23.0909 49.3544 30.6871C47.1946 32.6917 45.5747 40.077 57.4537 40.6045H59.1815C66.4168 40.288 73.9761 38.1779 76.8919 28.5771C77.4318 26.889 79.6996 26.5725 80.6715 28.0495C85.963 36.2788 96.978 58.3291 83.6952 73.6272C83.5872 73.7327 83.4792 73.8382 83.3713 73.8382C78.9437 80.907 64.473 79.9574 54.9699 79.9574H30.2402C19.5492 79.9574 10.802 71.4116 10.802 60.9667V59.5952C10.802 55.586 12.0978 51.8934 14.2576 48.8338C14.2576 48.8338 14.2576 48.8338 14.3656 48.7283C14.6896 48.3063 15.0136 47.7788 15.4455 47.3567C17.1734 45.0357 20.3051 40.288 19.5491 36.9119C18.3613 31.3202 12.9618 31.5312 12.9618 31.5312C12.9618 31.5312 10.802 31.5312 9.18211 34.0633C8.2102 35.7513 5.51044 32.5862 6.15838 29.8431C6.15838 29.8431 6.37436 26.045 10.9099 24.6734C10.9099 24.6734 1.94677 25.834 0.110939 18.1322C0.110939 18.3432 -0.537002 15.8111 1.29883 15.3891Z" fill="#F9C43E"/>
</svg>
