<svg width="86" height="63" viewBox="0 0 86 63" fill="none" xmlns="http://www.w3.org/2000/svg">
<path d="M85 14.7C84.5 14.9 73.8 18.5 66 23.5C62.6 19.6 57.8 15.7 52 12.9C48.1 6.79999 53.6 1.29998 53.6 1.29998C42.4 -1.60002 34 4.99999 29.6 9.59999C13.1 13.2 0.5 29.9 0.5 33.2C0.5 35.8 15.2 55.9 33.8 57.3C36.3 60.1 41.4 64.1 48.1 62.4C48.1 62.4 44.9 59.3 47 55.8C55.4 53.3 62.3 48.4 66.6 43.2C74.3 48 84.5 51.5 85.1 51.7C84.9 51.1 80.5 37.9 80.5 33.2C80.4 26.3 84.9 15.1 85 14.7Z" fill="#69AEEE"/>
</svg>
