<svg width="110" height="100" viewBox="0 0 110 100" fill="none" xmlns="http://www.w3.org/2000/svg">
<path fill-rule="evenodd" clip-rule="evenodd" d="M68.6198 16.097V3.54465C68.6198 1.58715 66.9882 0 64.9754 0H45.0364C43.0239 0 41.3921 1.58696 41.3921 3.54465V16.097H36.7729V3.54465C36.7729 1.58715 35.1413 1.97499e-07 33.1286 1.97499e-07H13.1896C11.177 1.97499e-07 9.54521 1.58696 9.54521 3.54465V16.097H3.83711C1.71811 16.097 0 17.8238 0 19.9539V96.1431C0 98.273 1.71789 100 3.83711 100H106.163C108.282 100 110 98.2735 110 96.1431V19.9539C110 17.824 108.282 16.097 106.163 16.097H100.467V3.54466C100.467 1.58716 98.8352 7.35006e-06 96.8224 7.35006e-06H76.8834C74.8708 7.35006e-06 73.239 1.58696 73.239 3.54466V16.097H68.6198Z" fill="#62C3FF"/>
</svg>
