<svg width="84" height="84" viewBox="0 0 84 84" fill="none" xmlns="http://www.w3.org/2000/svg">
<path d="M84 32C84 20.475 71.181 9.218 61.466 9.019C54.48 3.288 45.865 0 37.5 0C35.016 0 33 2.014 33 4.5C33 6.986 35.016 9 37.5 9C41.934 9 46.496 10.263 50.692 12.54C49.291 13.721 48.113 15.158 47.217 16.886C42.464 15.291 38.199 15 34.5 15C32.016 15 30 17.014 30 19.5C30 21.986 32.016 24 34.5 24C37.736 24 41.226 24.249 45.092 25.677C45.02 27.254 44.835 27.78 45.343 30.299C39.001 32.022 32.499 32.533 25.55 36.374C18.823 40.09 13.911 46.49 11.33 54.344C5.374 52.745 0 57.292 0 63C0 68.352 4.706 72.647 10.195 71.909C11.014 74.33 12.361 76.576 14.221 78.487C17.631 81.99 22.392 84 27.287 84H42C43.658 84 45 82.657 45 81C45 76.994 42.63 72.516 39.073 69.022C47.707 67.671 56.815 64.468 63.014 59.58L66.029 81.411C66.234 82.894 67.503 84 69 84H75C75.87 84 76.696 83.622 77.268 82.966C77.836 82.308 78.094 81.437 77.971 80.575L72.798 44.353C78.319 43.245 84 40.233 84 32Z" fill="#83E44A"/>
<circle cx="56.5" cy="24.5" r="3.5" fill="#252525"/>
<circle cx="73.5" cy="24.5" r="3.5" fill="#252525"/>
</svg>
