<svg width="204" height="204" viewBox="0 0 204 204" fill="none" xmlns="http://www.w3.org/2000/svg">
<g clip-path="url(#clip0_216_40)">
<path d="M70.55 120.864C70.55 120.864 56.6157 144.018 60.4634 152.892C62.781 158.247 66.827 164.588 74.001 165.761C76.398 166.152 77.5314 170.85 76.84 174.29C76.0524 178.177 73.321 183.617 71.8194 186.371C70.3177 189.131 67.4164 189.097 63.8237 192.27C61.319 194.48 60.4407 198.362 64.6907 198.401L84.779 198.566C88.5417 198.6 90.9727 196.31 91.8057 192.519C92.9617 187.261 96.1124 167.24 94.928 163.359C94.078 160.576 91.1484 158.338 89.2897 152.96C87.9127 148.977 91.2334 142.743 91.2334 142.743L70.55 120.864ZM37.978 89.2954C37.978 89.2954 42.6474 88.4681 45.186 88.9497C47.7247 89.4371 54.8477 94.7241 57.001 95.5231C59.1544 96.3221 64.362 95.0981 64.362 95.0981C64.362 95.0981 70.397 103.235 70.0004 104.057C69.6037 104.879 60.8374 106.72 58.7747 107.338C56.7177 107.956 48.8297 95.5457 46.614 94.1517C44.3984 92.7577 41.0607 96.1861 38.8337 96.0841C36.6124 95.9821 37.2357 94.3954 38.8054 93.9647C38.8054 93.9647 36.159 94.8544 36.0684 93.8571C35.9777 92.8597 38.267 92.2647 38.267 92.2647C38.267 92.2647 35.9494 93.0921 35.5754 92.1174C35.2127 91.1427 35.9324 89.9641 37.978 89.2954Z" fill="#3E701E"/>
<path d="M151.436 171.751C145.197 159.908 115.946 146.138 109.933 141.077C103.921 136.011 92.8653 103.15 83.6739 97.1266C77.0949 92.82 74.4713 83.4416 72.6693 74.6413C71.9553 71.145 63.1946 67.0876 62.5429 64.1296C60.8713 66.9913 44.5796 75.7066 53.3403 78.064C61.1829 80.172 55.4199 102.261 63.9086 116.189C69.0483 124.616 69.5243 138.227 81.4469 150.376C92.9956 162.146 117.617 157.879 128.803 173.332C148.824 200.985 183.453 200.929 197.534 181.656C197.534 181.656 183.124 186.02 174.103 185.81C164.554 185.589 157.086 182.467 151.436 171.751Z" fill="#5C913A"/>
<path d="M80.1041 122.542C80.1041 122.542 71.7685 141.429 75.9788 151.487C79.8718 160.797 89.3465 168.215 98.0618 171.162C100.181 171.876 104.255 171.819 105.247 174.89C106.239 177.962 104.318 188.167 102.935 190.706C101.552 193.245 94.2538 194.588 92.7408 199.24C92.1741 200.98 91.0238 203.484 94.3331 203.79C98.2261 204.147 118.507 203.938 121.969 203.972C125.432 204 126.304 201.286 126.338 197.716C126.355 195.46 122.44 184.172 124.128 176.165C125.155 171.433 127.083 166.943 129.806 162.939C135.479 154.502 130.056 153.527 122.151 153.527C109.82 153.527 97.5575 150.065 97.5575 150.065L80.1041 122.542ZM35.3828 104.737C35.3828 104.737 39.8028 102.334 42.5228 101.966C45.2428 101.603 54.1791 104.527 56.6215 104.607C59.0581 104.686 66.1981 99.79 66.1981 99.79C66.1981 99.79 72.6921 107.865 72.5675 108.828C72.4428 109.786 64.2432 114.586 62.3788 115.9C60.5145 117.215 50.2352 107.633 47.5378 106.975C44.8405 106.318 40.8058 110.636 38.5392 111.282C36.2668 111.928 36.3632 110.12 37.8025 109.157C37.8025 109.157 35.4395 110.942 35.0088 109.973C34.5838 109.004 36.6862 107.633 36.6862 107.633C36.6862 107.633 34.6348 109.248 33.9322 108.386C33.2238 107.525 33.5525 106.103 35.3828 104.737Z" fill="#77B155"/>
<path d="M60.2931 45.9114C60.9221 47.0108 53.1531 56.0321 50.7901 57.3071C49.4131 58.0664 46.2738 57.7944 43.1968 57.5167C47.2938 55.8054 46.1831 53.2611 44.3414 50.9208C45.7921 51.4081 46.9424 51.7368 47.5091 51.7084C49.8268 51.5158 58.5081 42.5511 60.2931 45.9114Z" fill="#292E32"/>
<path d="M50.7564 62.6449C47.6794 63.4496 43.8884 62.6449 42.1034 61.2736C40.6811 60.2763 40.4374 58.9276 42.5284 57.8396C42.6928 57.7716 42.8571 57.6526 43.0838 57.5789C43.1404 57.5733 43.1348 57.5166 43.1914 57.5166C46.2741 57.7943 49.4134 58.0663 50.7848 57.3069C53.1534 56.0376 60.9224 47.0106 60.2878 45.9113C58.5028 42.5509 49.8214 51.5099 47.5038 51.7026C46.9371 51.7366 45.7811 51.4023 44.3361 50.9206C43.5428 49.8893 42.6361 48.9203 41.9051 48.0533C41.9051 48.0533 43.8374 44.1376 49.4984 40.9133C55.1594 37.6889 64.6001 39.9273 68.0568 43.7579C71.5191 47.5943 56.3494 61.1886 50.7564 62.6449Z" fill="#77B155"/>
<path d="M51.1474 78.2171C48.2178 77.0157 47.3111 76.1147 44.8234 74.1597C43.1574 72.8564 40.8228 71.6381 37.8024 71.9271C30.6284 72.6127 18.1164 75.5424 15.7421 73.7517C13.3678 71.9611 12.0588 66.9801 13.7701 66.1414C14.0637 66.0222 14.3603 65.9107 14.6598 65.8071L14.6711 65.9771C14.6711 65.9771 14.4274 71.5531 16.5978 71.8251C18.7738 72.1537 35.3828 64.8324 39.3154 63.0757C40.6471 62.4864 41.5141 61.8121 42.1091 61.2681C43.8941 62.6394 47.6851 63.4441 50.7621 62.6394C56.3551 61.1831 71.5248 47.5831 68.0681 43.7524C64.6001 39.9274 55.1594 37.6947 49.4984 40.9134C43.8374 44.1377 41.9051 48.0534 41.9051 48.0534C42.6361 48.9204 43.5428 49.8894 44.3418 50.9207C42.4944 50.3484 40.2278 49.4587 38.0234 48.6201C39.0094 47.0277 39.9218 45.1577 39.9218 45.1577C39.9218 45.1577 33.2634 41.9107 29.0361 42.4377C24.8031 42.9647 6.83411 45.4241 5.10011 46.8294C3.41711 48.1781 6.52244 52.8247 6.52244 52.8247C6.71511 53.2101 6.90778 53.5387 7.10044 53.9241C6.19944 54.0317 5.52511 54.1281 5.17944 54.0941C2.43678 53.7994 0.572444 44.1377 1.80211 40.8907C3.08844 37.6381 8.68711 29.3081 17.2494 25.2337C25.8684 21.1027 30.5208 20.7344 32.8668 18.1561C33.4958 17.4817 33.5808 15.4587 36.5728 14.5407C39.8084 13.5491 45.3504 13.8607 49.5551 10.0244C62.1124 -1.43359 64.0391 6.42041 71.4568 8.86275C80.7954 11.9397 85.8501 5.68942 93.8741 26.6391C100.062 42.7947 90.1171 51.2607 101.19 61.3871C101.19 61.3871 110.636 70.1307 117.855 73.8254C167.348 99.1384 146.279 151.561 171.615 170.221C194.735 187.249 198.713 160.554 194.151 152.399C193.381 151.028 194.797 149.056 196.877 151.022C201.932 155.788 203.501 166.305 202.079 172.867C198.339 190.162 182.257 193.154 166.56 191.176C141.48 188.02 129.302 147.702 105.57 159.93C93.0921 166.362 85.4704 138.72 76.6871 125.528C68.9181 113.866 59.4094 85.2721 57.8171 80.0021C57.5678 79.1577 54.2358 79.4807 51.1474 78.2171Z" fill="#77B155"/>
<path d="M39.9218 45.1577C39.9218 45.1577 39.0094 47.0277 38.0234 48.6201C37.2868 49.6854 36.6011 50.5751 36.0968 50.7167C35.7001 50.7394 35.2694 49.1187 35.0088 47.6001L34.9521 47.6057L34.5724 44.9594C34.5724 44.9594 34.4138 46.1041 34.1984 47.3621C33.7848 48.9771 33.2068 50.7734 32.4191 50.8754C32.0791 50.8924 30.9344 48.8014 30.1071 47.2601C29.6594 46.3761 29.3364 45.7131 29.3364 45.7131C29.3364 45.7131 29.3251 46.5064 29.2684 47.5321C29.1948 49.1867 29.0984 51.4647 28.7641 51.5384C28.4241 51.5611 27.2454 49.8101 26.4294 48.4387L25.6078 47.0107L25.5908 48.6597C25.5738 50.3597 25.4831 52.7511 25.1488 52.8814C24.7521 52.9041 23.4488 50.9944 22.5194 49.6287C22.0774 48.8581 21.7091 48.3141 21.7091 48.3141C21.7091 48.3141 21.6921 48.9941 21.5731 49.9121C21.4994 51.6177 21.2444 54.0771 20.7968 54.1564C20.3434 54.1847 19.1591 52.3204 18.3374 50.8924C17.7708 49.9574 17.3854 49.1867 17.3854 49.1867C17.3854 49.1867 17.4931 50.0877 17.5554 51.1644C17.7651 52.8531 17.9011 55.1764 17.3968 55.3181C16.8981 55.5164 15.4191 53.5047 14.4784 52.0257C13.9231 51.2041 13.4868 50.4901 13.4868 50.4901C13.4868 50.4901 13.6398 51.2211 13.8098 52.1731C14.0761 53.8617 14.3311 56.2871 13.8891 56.4854C13.4471 56.6837 12.0758 54.5474 11.1294 52.9551L11.1238 52.8984C10.5571 51.9634 10.1151 51.1984 10.1151 51.1984L10.2284 53.1817C10.3248 54.8817 10.3418 57.1484 10.0131 57.3411C9.57109 57.5961 8.35842 56.1851 7.08909 53.9354C6.90776 53.5387 6.71509 53.2101 6.52242 52.8247C6.52242 52.8247 3.41709 48.1781 5.10009 46.8294C6.83409 45.4241 24.8088 42.9647 29.0361 42.4377C33.2634 41.9107 39.9218 45.1577 39.9218 45.1577ZM43.1744 59.1657C43.1744 59.1657 43.1688 60.0724 42.1034 61.2737C41.2791 62.0274 40.335 62.6383 39.3098 63.0814C35.3828 64.8437 18.7681 72.1594 16.5921 71.8307C14.4161 71.5587 14.6654 65.9827 14.6654 65.9827L14.6541 65.8127C14.3594 62.6507 14.6768 60.3047 15.3001 60.2651C15.8101 60.2367 17.2721 63.8974 17.6178 64.9571C17.6858 65.1214 17.7481 65.2347 17.7481 65.2347C17.7481 65.2347 17.7424 65.1214 17.7821 64.8947C17.8784 63.6424 18.3544 59.0694 19.0288 58.9731C19.7088 58.9334 20.7741 62.6791 21.0801 64.0221C21.1538 64.2997 21.2218 64.4697 21.2218 64.4697C21.2218 64.4697 21.2104 64.2997 21.3068 63.9541C21.4541 62.5261 21.9471 58.3554 22.6214 58.2024C23.2958 58.0494 24.4064 61.5627 24.8314 63.0134L25.0354 63.6254C25.0354 63.6254 25.0808 63.3931 25.1091 62.9397C25.3528 61.2794 25.8968 56.9331 26.4578 56.7857C27.0131 56.5251 28.5658 60.8091 28.9681 61.8631C29.0024 61.9326 29.0254 62.0072 29.0361 62.0841L29.0191 61.8007C29.1211 60.6051 29.3138 56.1057 29.8748 56.0151C30.2714 55.9924 31.6031 58.4121 32.3794 60.0157C32.7648 60.7864 33.0254 61.3417 33.0254 61.3417C33.0254 61.3417 33.0311 60.4917 32.9744 59.4717C32.9858 57.8227 32.9801 55.7261 33.3144 55.6467C33.5411 55.6354 34.2891 56.7801 34.9804 57.9361C35.7341 59.1997 36.4368 60.4634 36.4368 60.4634C36.4368 60.4634 36.4538 58.7577 36.5388 57.2787C36.5954 56.2531 36.7088 55.3407 36.8731 55.2161C37.0941 55.0914 37.7741 56.0717 38.3464 57.1767C39.0321 58.2704 39.6158 59.4887 39.6158 59.4887C39.6158 59.4887 39.6668 58.4064 39.8821 57.2561C39.9954 56.2304 40.2164 55.1934 40.4884 54.9497C40.8114 54.6494 41.6954 56.1851 42.3358 57.4544C42.4604 57.6187 42.5228 57.7264 42.5284 57.8397C42.9138 58.6161 43.1744 59.1657 43.1744 59.1657Z" fill="#F4900C"/>
<path d="M13.8098 52.1787C12.9352 52.4842 12.0393 52.7247 11.1294 52.8984L11.1351 52.9551L10.2341 53.1761C9.20211 53.4754 8.15635 53.725 7.10042 53.9241C6.90776 53.5387 6.71509 53.2101 6.52242 52.8247C6.52242 52.8247 3.41709 48.1781 5.10009 46.8294C6.83409 45.4241 24.8088 42.9647 29.0361 42.4377C33.2634 41.9107 39.9218 45.1577 39.9218 45.1577C39.9218 45.1577 39.0094 47.0277 38.0234 48.6201C36.9808 48.2801 35.9324 47.8891 35.0088 47.6001L34.9521 47.6057C34.6631 47.5094 34.4364 47.4641 34.1984 47.3621C32.8724 46.9881 31.7844 46.7671 31.2234 46.9144C30.9968 46.9824 30.6058 47.0617 30.1071 47.2601C29.8861 47.3281 29.6028 47.4017 29.2684 47.5377C28.3097 47.7974 27.3625 48.098 26.4294 48.4387L25.5908 48.6541C24.6388 48.9374 23.6414 49.2774 22.5251 49.6287C22.2474 49.7024 21.9131 49.8327 21.5731 49.9121C20.5026 50.2647 19.4237 50.5916 18.3374 50.8924C18.0665 50.9502 17.8038 51.0416 17.5554 51.1644C16.5296 51.4441 15.5058 51.7312 14.4841 52.0257C14.2656 52.1014 14.0395 52.1528 13.8098 52.1787ZM28.8831 28.0274C41.7521 23.7094 34.6121 22.0774 41.1741 18.6321C44.6478 16.8357 49.4361 17.1871 50.3201 19.6917C51.2211 22.5364 50.9888 26.3501 44.2454 28.6167C40.3468 29.9201 28.8831 28.0274 28.8831 28.0274ZM50.7564 62.6451C47.6794 63.4497 43.8884 62.645 42.1034 61.2737C41.2791 62.0274 40.335 62.6383 39.3098 63.0814C35.3828 64.8437 18.7681 72.1594 16.5921 71.8307C14.4161 71.5587 14.6654 65.9827 14.6654 65.9827L14.6541 65.8127L17.6121 64.9627C17.6688 64.957 17.7254 64.957 17.7764 64.8947C18.8717 64.5888 19.9712 64.2979 21.0744 64.0221C21.1311 64.0164 21.2444 64.0107 21.2954 63.9541C22.4684 63.6594 23.6981 63.3024 24.8201 63.0134C24.9179 63.0166 25.0144 62.991 25.0978 62.9397C26.6108 62.5657 27.9481 62.1521 28.9511 61.8631L29.0021 61.8007C29.2798 61.7271 29.5631 61.6534 29.7841 61.5854C30.8438 61.2397 31.6031 60.6277 32.3624 60.0157C32.5778 59.8344 32.7364 59.6531 32.9574 59.4717C33.6034 58.8654 34.1984 58.3214 34.9691 57.9361C35.4382 57.6166 35.9659 57.3932 36.5218 57.2787C36.8175 57.2112 37.1195 57.1752 37.4228 57.1711C37.7061 57.1541 37.9894 57.1371 38.3294 57.1767C38.7828 57.2051 39.2984 57.2334 39.8651 57.2561C40.6018 57.2674 41.4631 57.3921 42.3188 57.4544C42.6021 57.4941 42.8911 57.5337 43.1744 57.5167C46.2571 57.7944 49.3964 58.0664 50.7678 57.3071C53.1364 56.0377 60.9054 47.0107 60.2708 45.9114C58.4858 42.5511 49.8044 51.5101 47.4868 51.7027C46.9201 51.7367 45.7641 51.4024 44.3191 50.9207C43.5428 49.8894 42.6361 48.9204 41.9051 48.0534C41.9051 48.0534 43.8374 44.1377 49.4984 40.9134C55.1594 37.6891 64.6001 39.9274 68.0568 43.7581C71.5191 47.5944 56.3494 61.1887 50.7564 62.6451Z" fill="#77B155"/>
<path d="M44.2451 28.6167C40.3465 29.9201 28.8828 28.0274 28.8828 28.0274C41.7518 23.7094 34.6118 22.0774 41.1738 18.6321C44.6475 16.8357 49.4358 17.1871 50.3198 19.6917C51.2208 22.5364 50.9885 26.3501 44.2451 28.6167Z" fill="#3E701E"/>
<path d="M43.333 26.0327C44.8477 26.0327 46.0757 24.8048 46.0757 23.29C46.0757 21.7753 44.8477 20.5474 43.333 20.5474C41.8183 20.5474 40.5903 21.7753 40.5903 23.29C40.5903 24.8048 41.8183 26.0327 43.333 26.0327Z" fill="#292F33"/>
<path d="M115.39 82.3821C115.225 82.7224 114.993 83.0261 114.708 83.2753C114.423 83.5245 114.091 83.7141 113.732 83.8329C113.373 83.9518 112.993 83.9974 112.616 83.9672C112.239 83.937 111.871 83.8315 111.535 83.657C111.2 83.4825 110.902 83.2424 110.661 82.9511C110.419 82.6597 110.239 82.3229 110.129 81.9606C110.02 81.5983 109.985 81.2177 110.025 80.8415C110.065 80.4652 110.18 80.1008 110.364 79.7698C110.722 79.1239 111.317 78.6432 112.024 78.4301C112.731 78.217 113.494 78.2883 114.149 78.6288C114.804 78.9694 115.3 79.5522 115.532 80.2532C115.764 80.9542 115.713 81.7181 115.39 82.3821ZM122.451 100.238C122.213 100.72 121.882 101.149 121.476 101.501C121.07 101.853 120.598 102.121 120.088 102.288C119.577 102.455 119.039 102.519 118.503 102.475C117.968 102.432 117.446 102.281 116.97 102.033C116.493 101.785 116.071 101.445 115.728 101.032C115.385 100.618 115.127 100.141 114.971 99.6265C114.815 99.1125 114.763 98.5725 114.819 98.0381C114.874 97.5038 115.036 96.9858 115.294 96.5147C115.801 95.5897 116.65 94.9001 117.659 94.5935C118.669 94.287 119.758 94.3879 120.694 94.8747C121.63 95.3615 122.338 96.1955 122.666 97.1979C122.994 98.2004 122.917 99.2916 122.451 100.238ZM125.494 87.7144C125.231 88.2186 124.778 88.5977 124.236 88.7683C123.693 88.9389 123.105 88.8869 122.601 88.6239C122.097 88.3609 121.718 87.9084 121.547 87.3659C121.377 86.8234 121.428 86.2353 121.691 85.7311C121.954 85.2269 122.407 84.8478 122.949 84.6772C123.492 84.5066 124.08 84.5586 124.584 84.8216C125.088 85.0846 125.468 85.5371 125.638 86.0796C125.809 86.6222 125.757 87.2102 125.494 87.7144ZM131.512 95.8631C131.394 96.1083 131.229 96.3273 131.025 96.5072C130.821 96.6871 130.583 96.8242 130.325 96.9103C130.067 96.9964 129.794 97.0298 129.523 97.0084C129.252 96.9871 128.988 96.9115 128.747 96.7861C128.506 96.6607 128.292 96.4881 128.119 96.2786C127.946 96.069 127.816 95.8267 127.739 95.5662C127.661 95.3056 127.636 95.0321 127.666 94.7619C127.696 94.4916 127.78 94.2302 127.913 93.9931C128.171 93.5338 128.598 93.1927 129.102 93.0421C129.607 92.8914 130.151 92.943 130.618 93.1859C131.085 93.4288 131.44 93.844 131.607 94.3436C131.774 94.8432 131.74 95.3881 131.512 95.8631ZM148.54 138.55C148.455 138.742 148.331 138.915 148.177 139.058C148.022 139.201 147.84 139.31 147.641 139.38C147.443 139.45 147.232 139.478 147.022 139.463C146.813 139.448 146.608 139.391 146.421 139.294C146.235 139.197 146.07 139.063 145.937 138.9C145.804 138.737 145.705 138.548 145.648 138.346C145.591 138.144 145.575 137.932 145.603 137.723C145.631 137.515 145.701 137.314 145.809 137.133C146.01 136.797 146.333 136.55 146.711 136.443C147.088 136.336 147.492 136.377 147.841 136.557C148.189 136.738 148.455 137.045 148.585 137.415C148.715 137.785 148.699 138.191 148.54 138.55ZM141.649 108.12C141.163 108.952 140.375 109.566 139.448 109.833C138.522 110.101 137.528 110.002 136.673 109.557C135.818 109.112 135.166 108.355 134.853 107.443C134.54 106.532 134.589 105.534 134.991 104.658C135.478 103.825 136.266 103.212 137.192 102.945C138.118 102.677 139.112 102.776 139.968 103.221C140.823 103.666 141.475 104.423 141.788 105.334C142.101 106.246 142.051 107.244 141.649 108.12Z" fill="#3E701E"/>
<path d="M137.983 136.601C139.31 136.601 140.385 135.525 140.385 134.198C140.385 132.871 139.31 131.795 137.983 131.795C136.656 131.795 135.58 132.871 135.58 134.198C135.58 135.525 136.656 136.601 137.983 136.601Z" fill="#3E701E"/>
<path d="M129.404 110.052C130.731 110.052 131.806 108.977 131.806 107.65C131.806 106.323 130.731 105.247 129.404 105.247C128.077 105.247 127.001 106.323 127.001 107.65C127.001 108.977 128.077 110.052 129.404 110.052Z" fill="#3E701E"/>
<path d="M145.186 129.262C146.513 129.262 147.589 128.187 147.589 126.86C147.589 125.533 146.513 124.457 145.186 124.457C143.859 124.457 142.783 125.533 142.783 126.86C142.783 128.187 143.859 129.262 145.186 129.262Z" fill="#3E701E"/>
<path d="M136.227 122.757C138.189 122.757 139.78 121.166 139.78 119.204C139.78 117.242 138.189 115.651 136.227 115.651C134.265 115.651 132.674 117.242 132.674 119.204C132.674 121.166 134.265 122.757 136.227 122.757Z" fill="#3E701E"/>
</g>
<defs>
<clipPath id="clip0_216_40">
<rect width="204" height="204" fill="white"/>
</clipPath>
</defs>
</svg>
